<svg xmlns="http://www.w3.org/2000/svg">
  <symbol version="1.1" id="chefHut" xmlns="http://www.w3.org/2000/svg" xmlns:xlink="http://www.w3.org/1999/xlink" x="0px" y="0px"
      viewBox="0 0 512 512" style="enable-background:new 0 0 512 512;" xml:space="preserve">
    <circle style="fill:#662E57;" cx="256" cy="256" r="256"/>
    <path style="fill:#590F38;" d="M512,256c0-32.455-6.054-63.492-17.071-92.063l-49.997-49.997L77,211.293l166.846,167.553
      l-113.993,63.386l61.537,61.537c20.64,5.367,42.29,8.23,64.61,8.23C397.385,512,512,397.385,512,256z"/>
    <path style="fill:#FFFFFF;" d="M457.5,156.449c0-43.158-34.986-78.144-78.144-78.144c-5.753,0-11.354,0.64-16.753,1.819
      C339.238,52.724,300.21,34.767,256,34.767s-83.238,17.957-106.603,45.357c-5.399-1.18-11-1.819-16.753-1.819
      c-43.158,0-78.144,34.986-78.144,78.144c0,42.222,33.491,76.601,75.353,78.074v207.71h252.294v-207.71
      C424.009,233.05,457.5,198.671,457.5,156.449z"/>
    <path style="fill:#E0E0E0;" d="M379.356,78.305c-5.753,0-11.354,0.64-16.753,1.819C339.238,52.724,300.21,34.767,256,34.767
      c-0.112,0-0.222,0.004-0.333,0.004v407.461h126.48v-207.71c41.863-1.472,75.353-35.852,75.353-78.074
      C457.5,113.291,422.514,78.305,379.356,78.305z"/>
    <rect x="129.85" y="373.54" style="fill:#B9EAFF;" width="252.29" height="68.7"/>
    <rect x="255.67" y="373.54" style="fill:#35CCFF;" width="126.48" height="68.7"/>
    <rect x="185.11" y="282.6" style="fill:#FFECB3;" width="141.78" height="42.42"/>
    <rect x="255.67" y="282.6" style="fill:#FFD863;" width="71.22" height="42.42"/>
    <g>
    </g>
    <g>
    </g>
    <g>
    </g>
    <g>
    </g>
    <g>
    </g>
    <g>
    </g>
    <g>
    </g>
    <g>
    </g>
    <g>
    </g>
    <g>
    </g>
    <g>
    </g>
    <g>
    </g>
    <g>
    </g>
    <g>
    </g>
    <g>
    </g>
  </symbol>
  <symbol id="logo" enable-background="new 0 0 64 64" viewBox="0 0 64 64" xmlns="http://www.w3.org/2000/svg">
    <path d="m15.5 1v52h-2c-2.76 0-5 2.24-5 5v-52c0-2.76 2.24-5 5-5z" fill="#656d78"/><path d="m55.5 53v10h-4v-5-5z" fill="#da4453"/><path d="m51.5 58v5h-38c-2.76 0-5-2.24-5-5s2.24-5 5-5h2 36z" fill="#e6e9ed"/><path d="m15.5 1v52h36 4v-52z" fill="#ed5565"/><path d="m27.5 29h16v3h-16z" fill="#ccd1d9"/><path d="m40.7 12h2.8c2.76 0 5 2.24 5 5s-2.24 5-5 5v7h-16v-7c-2.76 0-5-2.24-5-5s2.24-5 5-5h2.81c1.03-1.79 2.971-3 5.19-3s4.16 1.21 5.2 3z" fill="#e6e9ed"/><path d="m13.5 64c-3.309 0-6-2.691-6-6s2.691-6 6-6c.553 0 1 .447 1 1s-.447 1-1 1c-2.206 0-4 1.794-4 4s1.794 4 4 4c.553 0 1 .447 1 1s-.447 1-1 1z"/><path d="m55.5 54h-42c-.553 0-1-.447-1-1s.447-1 1-1h42c.553 0 1 .447 1 1s-.447 1-1 1z"/><path d="m55.5 64h-42c-.553 0-1-.447-1-1s.447-1 1-1h42c.553 0 1 .447 1 1s-.447 1-1 1z"/><path d="m8.5 7c-.553 0-1-.447-1-1 0-3.309 2.691-6 6-6 .553 0 1 .447 1 1s-.447 1-1 1c-2.206 0-4 1.794-4 4 0 .553-.447 1-1 1z"/><path d="m8.5 59c-.553 0-1-.447-1-1v-52c0-.553.447-1 1-1s1 .447 1 1v52c0 .553-.447 1-1 1z"/><path d="m55.5 2h-42c-.553 0-1-.447-1-1s.447-1 1-1h42c.553 0 1 .447 1 1s-.447 1-1 1z"/><path d="m55.5 54c-.553 0-1-.447-1-1v-52c0-.553.447-1 1-1s1 .447 1 1v52c0 .553-.447 1-1 1z"/><path d="m55.5 64c-.553 0-1-.447-1-1v-10c0-.553.447-1 1-1s1 .447 1 1v10c0 .553-.447 1-1 1z"/><path d="m15.5 54c-.553 0-1-.447-1-1v-52c0-.553.447-1 1-1s1 .447 1 1v52c0 .553-.447 1-1 1z"/><path d="m51.5 59.002h-38c-.553 0-1-.447-1-1s.447-1 1-1h38c.553 0 1 .447 1 1s-.447 1-1 1z"/><path d="m51.5 64c-.553 0-1-.447-1-1v-10c0-.553.447-1 1-1s1 .447 1 1v10c0 .553-.447 1-1 1z"/><path d="m27.503 22.999c-3.309 0-6-2.691-6-6s2.691-6 6-6c.553 0 1 .447 1 1s-.447 1-1 1c-2.206 0-4 1.794-4 4s1.794 4 4 4c.553 0 1 .447 1 1s-.447 1-1 1z"/><path d="m41.502 15.999c-.553 0-1-.447-1-1 0-2.757-2.243-5-5-5s-5 2.243-5 5c0 .553-.447 1-1 1s-1-.447-1-1c0-3.859 3.141-7 7-7s7 3.141 7 7c0 .553-.447 1-1 1z"/><path d="m43.501 22.999c-.553 0-1-.447-1-1s.447-1 1-1c2.206 0 4-1.794 4-4s-1.794-4-4-4c-.553 0-1-.447-1-1s.447-1 1-1c3.309 0 6 2.691 6 6s-2.691 6-6 6z"/><path d="m30.307 12.999h-2.805c-.553 0-1-.447-1-1s.447-1 1-1h2.805c.553 0 1 .447 1 1s-.448 1-1 1z"/><path d="m43.501 12.999h-2.804c-.553 0-1-.447-1-1s.447-1 1-1h2.804c.553 0 1 .447 1 1s-.447 1-1 1z"/><path d="m27.502 32.998c-.553 0-1-.447-1-1v-10.001c0-.553.447-1 1-1s1 .447 1 1v10.001c0 .553-.447 1-1 1z"/><path d="m43.503 32.998h-16.001c-.553 0-1-.447-1-1s.447-1 1-1h16.001c.553 0 1 .447 1 1s-.447 1-1 1z"/><path d="m43.503 30h-16.001c-.553 0-1-.447-1-1s.447-1 1-1h16.001c.553 0 1 .447 1 1s-.447 1-1 1z"/><path d="m43.503 32.998c-.553 0-1-.447-1-1v-10.001c0-.553.447-1 1-1s1 .447 1 1v10.001c0 .553-.447 1-1 1z"/><path d="m46.499 38.999h-21.994c-.553 0-1-.447-1-1s.447-1 1-1h21.994c.553 0 1 .447 1 1s-.447 1-1 1z"/><path d="m46.499 41.999h-21.994c-.553 0-1-.447-1-1s.447-1 1-1h21.994c.553 0 1 .447 1 1s-.447 1-1 1z"/><path d="m41.5 45.025h-11.996c-.553 0-1-.447-1-1s.447-1 1-1h11.996c.553 0 1 .447 1 1s-.447 1-1 1z"/>
  </symbol>
</svg>